<?xml version="1.0" encoding="UTF-8" standalone="no"?>
<!DOCTYPE svg PUBLIC "-//W3C//DTD SVG 1.0//EN" "http://www.w3.org/TR/2001/PR-SVG-20010719/DTD/svg10.dtd">
<svg width="68cm" height="62cm" viewBox="-409 33 1346 1238" xmlns="http://www.w3.org/2000/svg" xmlns:xlink="http://www.w3.org/1999/xlink">
  <g>
    <rect style="fill: #ffffff" x="-70.394" y="102.123" width="58.8" height="36"/>
    <rect style="fill: none; fill-opacity:0; stroke-width: 2; stroke: #000000" x="-70.394" y="102.123" width="58.8" height="36"/>
    <text font-size="12.8" style="fill: #000000;text-anchor:middle;font-family:monospace;font-style:normal;font-weight:normal" x="-40.994" y="123.323">user</text>
  </g>
  <g>
    <rect style="fill: #ffffff" x="-166.251" y="190.06" width="66.5" height="36"/>
    <rect style="fill: none; fill-opacity:0; stroke-width: 2; stroke: #000000" x="-166.251" y="190.06" width="66.5" height="36"/>
    <text font-size="12.8" style="fill: #000000;text-anchor:middle;font-family:monospace;font-style:normal;font-weight:normal" x="-133.001" y="211.26">coach</text>
  </g>
  <g>
    <rect style="fill: #ffffff" x="11.2825" y="189.974" width="81.9" height="36"/>
    <rect style="fill: none; fill-opacity:0; stroke-width: 2; stroke: #000000" x="11.2825" y="189.974" width="81.9" height="36"/>
    <text font-size="12.8" style="fill: #000000;text-anchor:middle;font-family:monospace;font-style:normal;font-weight:normal" x="52.2325" y="211.174">athlete</text>
  </g>
  <g>
    <rect style="fill: #ffffff" x="342.982" y="681.594" width="58.8" height="36"/>
    <rect style="fill: none; fill-opacity:0; stroke-width: 2; stroke: #000000" x="342.982" y="681.594" width="58.8" height="36"/>
    <text font-size="12.8" style="fill: #000000;text-anchor:middle;font-family:monospace;font-style:normal;font-weight:normal" x="372.382" y="702.794">heat</text>
  </g>
  <g>
    <rect style="fill: #ffffff" x="319.765" y="489.778" width="112.7" height="36"/>
    <rect style="fill: none; fill-opacity:0; stroke-width: 2; stroke: #000000" x="319.765" y="489.778" width="112.7" height="36"/>
    <text font-size="12.8" style="fill: #000000;text-anchor:middle;font-family:monospace;font-style:normal;font-weight:normal" x="376.115" y="510.978">competition</text>
  </g>
  <g>
    <rect style="fill: #ffffff" x="11.0394" y="697.26" width="89.6" height="36"/>
    <rect style="fill: none; fill-opacity:0; stroke-width: 2; stroke: #000000" x="11.0394" y="697.26" width="89.6" height="36"/>
    <text font-size="12.8" style="fill: #000000;text-anchor:middle;font-family:monospace;font-style:normal;font-weight:normal" x="55.8394" y="718.46">activity</text>
  </g>
  <g>
    <rect style="fill: #ffffff" x="-118.417" y="775.428" width="51.1" height="36"/>
    <rect style="fill: none; fill-opacity:0; stroke-width: 2; stroke: #000000" x="-118.417" y="775.428" width="51.1" height="36"/>
    <text font-size="12.8" style="fill: #000000;text-anchor:middle;font-family:monospace;font-style:normal;font-weight:normal" x="-92.8672" y="796.628">gym</text>
  </g>
  <g>
    <rect style="fill: #ffffff" x="165.651" y="876.446" width="66.5" height="36"/>
    <rect style="fill: none; fill-opacity:0; stroke-width: 2; stroke: #000000" x="165.651" y="876.446" width="66.5" height="36"/>
    <text font-size="12.8" style="fill: #000000;text-anchor:middle;font-family:monospace;font-style:normal;font-weight:normal" x="198.901" y="897.646">water</text>
  </g>
  <g>
    <rect style="fill: #ffffff" x="483.606" y="190.535" width="135.8" height="36"/>
    <rect style="fill: none; fill-opacity:0; stroke-width: 2; stroke: #000000" x="483.606" y="190.535" width="135.8" height="36"/>
    <text font-size="12.8" style="fill: #000000;text-anchor:middle;font-family:monospace;font-style:normal;font-weight:normal" x="551.506" y="211.735">caracteristics</text>
  </g>
  <g>
    <ellipse style="fill: #ffffff" cx="449.213" cy="167.738" rx="35.4" ry="18"/>
    <ellipse style="fill: none; fill-opacity:0; stroke-width: 2; stroke: #000000" cx="449.213" cy="167.738" rx="35.4" ry="18"/>
    <text font-size="12.8" style="fill: #000000;text-anchor:middle;font-family:monospace;font-style:normal;font-weight:normal" x="449.213" y="170.938">date</text>
  </g>
  <g>
    <ellipse style="fill: #ffffff" cx="498.178" cy="124.552" rx="43.1" ry="18"/>
    <ellipse style="fill: none; fill-opacity:0; stroke-width: 2; stroke: #000000" cx="498.178" cy="124.552" rx="43.1" ry="18"/>
    <text font-size="12.8" style="fill: #000000;text-anchor:middle;font-family:monospace;font-style:normal;font-weight:normal" x="498.178" y="127.752">weight</text>
  </g>
  <g>
    <ellipse style="fill: #ffffff" cx="588.898" cy="143.831" rx="43.1" ry="18"/>
    <ellipse style="fill: none; fill-opacity:0; stroke-width: 2; stroke: #000000" cx="588.898" cy="143.831" rx="43.1" ry="18"/>
    <text font-size="12.8" style="fill: #000000;text-anchor:middle;font-family:monospace;font-style:normal;font-weight:normal" x="588.898" y="147.031">height</text>
  </g>
  <g>
    <ellipse style="fill: #ffffff" cx="700.482" cy="139.273" rx="50.8" ry="18"/>
    <ellipse style="fill: none; fill-opacity:0; stroke-width: 2; stroke: #000000" cx="700.482" cy="139.273" rx="50.8" ry="18"/>
    <text font-size="12.8" style="fill: #000000;text-anchor:middle;font-family:monospace;font-style:normal;font-weight:normal" x="700.482" y="142.473">calories</text>
  </g>
  <g>
    <ellipse style="fill: #ffffff" cx="706.79" cy="185.798" rx="31.55" ry="18"/>
    <ellipse style="fill: none; fill-opacity:0; stroke-width: 2; stroke: #000000" cx="706.79" cy="185.798" rx="31.55" ry="18"/>
    <text font-size="12.8" style="fill: #000000;text-anchor:middle;font-family:monospace;font-style:normal;font-weight:normal" x="706.79" y="188.998">%MG</text>
  </g>
  <g>
    <ellipse style="fill: #ffffff" cx="786.666" cy="217.385" rx="39.25" ry="18"/>
    <ellipse style="fill: none; fill-opacity:0; stroke-width: 2; stroke: #000000" cx="786.666" cy="217.385" rx="39.25" ry="18"/>
    <text font-size="12.8" style="fill: #000000;text-anchor:middle;font-family:monospace;font-style:normal;font-weight:normal" x="786.666" y="220.585">waist</text>
  </g>
  <g>
    <ellipse style="fill: #ffffff" cx="698.54" cy="245.972" rx="31.55" ry="18"/>
    <ellipse style="fill: none; fill-opacity:0; stroke-width: 2; stroke: #000000" cx="698.54" cy="245.972" rx="31.55" ry="18"/>
    <text font-size="12.8" style="fill: #000000;text-anchor:middle;font-family:monospace;font-style:normal;font-weight:normal" x="698.54" y="249.172">arm</text>
  </g>
  <g>
    <ellipse style="fill: #ffffff" cx="706.278" cy="299.8" rx="39.25" ry="18"/>
    <ellipse style="fill: none; fill-opacity:0; stroke-width: 2; stroke: #000000" cx="706.278" cy="299.8" rx="39.25" ry="18"/>
    <text font-size="12.8" style="fill: #000000;text-anchor:middle;font-family:monospace;font-style:normal;font-weight:normal" x="706.278" y="303">thigh</text>
  </g>
  <g>
    <ellipse style="fill: #ffffff" cx="602.338" cy="290.244" rx="43.1" ry="18"/>
    <ellipse style="fill: none; fill-opacity:0; stroke-width: 2; stroke: #000000" cx="602.338" cy="290.244" rx="43.1" ry="18"/>
    <text font-size="12.8" style="fill: #000000;text-anchor:middle;font-family:monospace;font-style:normal;font-weight:normal" x="602.338" y="293.444">tricep</text>
  </g>
  <g>
    <ellipse style="fill: #ffffff" cx="472.012" cy="294.004" rx="54.65" ry="18"/>
    <ellipse style="fill: none; fill-opacity:0; stroke-width: 2; stroke: #000000" cx="472.012" cy="294.004" rx="54.65" ry="18"/>
    <text font-size="12.8" style="fill: #000000;text-anchor:middle;font-family:monospace;font-style:normal;font-weight:normal" x="472.012" y="297.204">abdominal</text>
  </g>
  <g>
    <ellipse style="fill: #ffffff" cx="548.034" cy="328.654" rx="39.25" ry="18"/>
    <ellipse style="fill: none; fill-opacity:0; stroke-width: 2; stroke: #000000" cx="548.034" cy="328.654" rx="39.25" ry="18"/>
    <text font-size="12.8" style="fill: #000000;text-anchor:middle;font-family:monospace;font-style:normal;font-weight:normal" x="548.034" y="331.854">waist</text>
  </g>
  <g>
    <ellipse style="fill: #ffffff" cx="-93.2912" cy="997.436" rx="58.5" ry="18"/>
    <ellipse style="fill: none; fill-opacity:0; stroke-width: 2; stroke: #000000" cx="-93.2912" cy="997.436" rx="58.5" ry="18"/>
    <text font-size="12.8" style="fill: #000000;text-anchor:middle;font-family:monospace;font-style:normal;font-weight:normal" x="-93.2912" y="1000.64">repetition</text>
  </g>
  <g>
    <ellipse style="fill: #ffffff" cx="3.0298" cy="980.49" rx="39.25" ry="18"/>
    <ellipse style="fill: none; fill-opacity:0; stroke-width: 2; stroke: #000000" cx="3.0298" cy="980.49" rx="39.25" ry="18"/>
    <text font-size="12.8" style="fill: #000000;text-anchor:middle;font-family:monospace;font-style:normal;font-weight:normal" x="3.0298" y="983.69">serie</text>
  </g>
  <g>
    <ellipse style="fill: #ffffff" cx="13.1682" cy="928.556" rx="43.1" ry="18"/>
    <ellipse style="fill: none; fill-opacity:0; stroke-width: 2; stroke: #000000" cx="13.1682" cy="928.556" rx="43.1" ry="18"/>
    <text font-size="12.8" style="fill: #000000;text-anchor:middle;font-family:monospace;font-style:normal;font-weight:normal" x="13.1682" y="931.756">weight</text>
  </g>
  <g>
    <ellipse style="fill: #ffffff" cx="-170.624" cy="894.436" rx="54.65" ry="18"/>
    <ellipse style="fill: none; fill-opacity:0; stroke-width: 2; stroke: #000000" cx="-170.624" cy="894.436" rx="54.65" ry="18"/>
    <text font-size="12.8" style="fill: #000000;text-anchor:middle;font-family:monospace;font-style:normal;font-weight:normal" x="-170.624" y="897.636">rest_time</text>
  </g>
  <g>
    <rect style="fill: #ffffff" x="-137.329" y="916.576" width="89.6" height="36"/>
    <rect style="fill: none; fill-opacity:0; stroke-width: 2; stroke: #000000" x="-137.329" y="916.576" width="89.6" height="36"/>
    <text font-size="12.8" style="fill: #000000;text-anchor:middle;font-family:monospace;font-style:normal;font-weight:normal" x="-92.5286" y="937.776">exercise</text>
  </g>
  <g>
    <ellipse style="fill: #ffffff" cx="128.59" cy="675.734" rx="35.4" ry="18"/>
    <ellipse style="fill: none; fill-opacity:0; stroke-width: 2; stroke: #000000" cx="128.59" cy="675.734" rx="35.4" ry="18"/>
    <text font-size="12.8" style="fill: #000000;text-anchor:middle;font-family:monospace;font-style:normal;font-weight:normal" x="128.59" y="678.934">date</text>
  </g>
  <g>
    <ellipse style="fill: #ffffff" cx="-17.391" cy="681.632" rx="27.7" ry="18"/>
    <ellipse style="fill: none; fill-opacity:0; stroke-width: 2; stroke: #000000" cx="-17.391" cy="681.632" rx="27.7" ry="18"/>
    <text font-size="12.8" style="fill: #000000;text-anchor:middle;font-family:monospace;font-style:normal;font-weight:normal" x="-17.391" y="684.832">id</text>
    <line style="fill: none; fill-opacity:0; stroke-width: 2; stroke: #000000" x1="-25.091" y1="689.632" x2="-9.691" y2="689.632"/>
  </g>
  <g>
    <ellipse style="fill: #ffffff" cx="-107.332" cy="83.61" rx="27.7" ry="18"/>
    <ellipse style="fill: none; fill-opacity:0; stroke-width: 2; stroke: #000000" cx="-107.332" cy="83.61" rx="27.7" ry="18"/>
    <text font-size="12.8" style="fill: #000000;text-anchor:middle;font-family:monospace;font-style:normal;font-weight:normal" x="-107.332" y="86.81">id</text>
    <line style="fill: none; fill-opacity:0; stroke-width: 2; stroke: #000000" x1="-115.032" y1="91.61" x2="-99.6322" y2="91.61"/>
  </g>
  <g>
    <ellipse style="fill: #ffffff" cx="116.805" cy="972.242" rx="54.65" ry="18"/>
    <ellipse style="fill: none; fill-opacity:0; stroke-width: 2; stroke: #000000" cx="116.805" cy="972.242" rx="54.65" ry="18"/>
    <text font-size="12.8" style="fill: #000000;text-anchor:middle;font-family:monospace;font-style:normal;font-weight:normal" x="116.805" y="975.442">condition</text>
  </g>
  <g>
    <rect style="fill: #ffffff" x="706.048" y="874.918" width="112.7" height="36"/>
    <rect style="fill: none; fill-opacity:0; stroke-width: 2; stroke: #000000" x="706.048" y="874.918" width="112.7" height="36"/>
    <text font-size="12.8" style="fill: #000000;text-anchor:middle;font-family:monospace;font-style:normal;font-weight:normal" x="762.398" y="896.118">questionary</text>
  </g>
  <g>
    <rect style="fill: #ffffff" x="150.252" y="1070.44" width="97.3" height="36"/>
    <rect style="fill: none; fill-opacity:0; stroke-width: 2; stroke: #000000" x="150.252" y="1070.44" width="97.3" height="36"/>
    <text font-size="12.8" style="fill: #000000;text-anchor:middle;font-family:monospace;font-style:normal;font-weight:normal" x="198.902" y="1091.64">maneuvers</text>
  </g>
  <g>
    <ellipse style="fill: #ffffff" cx="279.08" cy="1046.89" rx="35.4" ry="18"/>
    <ellipse style="fill: none; fill-opacity:0; stroke-width: 2; stroke: #000000" cx="279.08" cy="1046.89" rx="35.4" ry="18"/>
    <text font-size="12.8" style="fill: #000000;text-anchor:middle;font-family:monospace;font-style:normal;font-weight:normal" x="279.08" y="1050.09">side</text>
  </g>
  <g>
    <ellipse style="fill: #ffffff" cx="141.992" cy="1140.32" rx="46.95" ry="18"/>
    <ellipse style="fill: none; fill-opacity:0; stroke-width: 2; stroke: #000000" cx="141.992" cy="1140.32" rx="46.95" ry="18"/>
    <text font-size="12.8" style="fill: #000000;text-anchor:middle;font-family:monospace;font-style:normal;font-weight:normal" x="141.992" y="1143.52">success</text>
  </g>
  <g>
    <ellipse style="fill: #ffffff" cx="239.874" cy="1144.94" rx="43.1" ry="18"/>
    <ellipse style="fill: none; fill-opacity:0; stroke-width: 2; stroke: #000000" cx="239.874" cy="1144.94" rx="43.1" ry="18"/>
    <text font-size="12.8" style="fill: #000000;text-anchor:middle;font-family:monospace;font-style:normal;font-weight:normal" x="239.874" y="1148.14">failed</text>
  </g>
  <g>
    <ellipse style="fill: #ffffff" cx="810.37" cy="837.388" rx="39.25" ry="18"/>
    <ellipse style="fill: none; fill-opacity:0; stroke-width: 2; stroke: #000000" cx="810.37" cy="837.388" rx="39.25" ry="18"/>
    <text font-size="12.8" style="fill: #000000;text-anchor:middle;font-family:monospace;font-style:normal;font-weight:normal" x="810.37" y="840.588">sleep</text>
  </g>
  <g>
    <ellipse style="fill: #ffffff" cx="888.812" cy="868.436" rx="46.95" ry="18"/>
    <ellipse style="fill: none; fill-opacity:0; stroke-width: 2; stroke: #000000" cx="888.812" cy="868.436" rx="46.95" ry="18"/>
    <text font-size="12.8" style="fill: #000000;text-anchor:middle;font-family:monospace;font-style:normal;font-weight:normal" x="888.812" y="871.636">fatigue</text>
  </g>
  <g>
    <ellipse style="fill: #ffffff" cx="741.578" cy="946.26" rx="62.35" ry="18"/>
    <ellipse style="fill: none; fill-opacity:0; stroke-width: 2; stroke: #000000" cx="741.578" cy="946.26" rx="62.35" ry="18"/>
    <text font-size="12.8" style="fill: #000000;text-anchor:middle;font-family:monospace;font-style:normal;font-weight:normal" x="741.578" y="949.46">muscle_pain</text>
  </g>
  <g>
    <ellipse style="fill: #ffffff" cx="868.368" cy="938.232" rx="43.1" ry="18"/>
    <ellipse style="fill: none; fill-opacity:0; stroke-width: 2; stroke: #000000" cx="868.368" cy="938.232" rx="43.1" ry="18"/>
    <text font-size="12.8" style="fill: #000000;text-anchor:middle;font-family:monospace;font-style:normal;font-weight:normal" x="868.368" y="941.432">stress</text>
  </g>
  <g>
    <ellipse style="fill: #ffffff" cx="118.968" cy="916.01" rx="35.4" ry="18"/>
    <ellipse style="fill: none; fill-opacity:0; stroke-width: 2; stroke: #000000" cx="118.968" cy="916.01" rx="35.4" ry="18"/>
    <text font-size="12.8" style="fill: #000000;text-anchor:middle;font-family:monospace;font-style:normal;font-weight:normal" x="118.968" y="919.21">time</text>
  </g>
  <g>
    <ellipse style="fill: #ffffff" cx="93.505" cy="866.502" rx="31.55" ry="18"/>
    <ellipse style="fill: none; fill-opacity:0; stroke-width: 2; stroke: #000000" cx="93.505" cy="866.502" rx="31.55" ry="18"/>
    <text font-size="12.8" style="fill: #000000;text-anchor:middle;font-family:monospace;font-style:normal;font-weight:normal" x="93.505" y="869.702">pse</text>
  </g>
  <g>
    <ellipse style="fill: #ffffff" cx="292.652" cy="958.324" rx="58.5" ry="18"/>
    <ellipse style="fill: none; fill-opacity:0; stroke-width: 2; stroke: #000000" cx="292.652" cy="958.324" rx="58.5" ry="18"/>
    <text font-size="12.8" style="fill: #000000;text-anchor:middle;font-family:monospace;font-style:normal;font-weight:normal" x="292.652" y="961.524">heart_rate</text>
  </g>
  <g>
    <ellipse style="fill: #ffffff" cx="284.328" cy="868.886" rx="39.25" ry="18"/>
    <ellipse style="fill: none; fill-opacity:0; stroke-width: 2; stroke: #000000" cx="284.328" cy="868.886" rx="39.25" ry="18"/>
    <text font-size="12.8" style="fill: #000000;text-anchor:middle;font-family:monospace;font-style:normal;font-weight:normal" x="284.328" y="872.086">waves</text>
  </g>
  <g>
    <ellipse style="fill: #ffffff" cx="307.53" cy="918.468" rx="50.8" ry="18"/>
    <ellipse style="fill: none; fill-opacity:0; stroke-width: 2; stroke: #000000" cx="307.53" cy="918.468" rx="50.8" ry="18"/>
    <text font-size="12.8" style="fill: #000000;text-anchor:middle;font-family:monospace;font-style:normal;font-weight:normal" x="307.53" y="921.668">attempts</text>
  </g>
  <g>
    <rect style="fill: #ffffff" x="-298.292" y="101.975" width="66.5" height="36"/>
    <rect style="fill: none; fill-opacity:0; stroke-width: 2; stroke: #000000" x="-298.292" y="101.975" width="66.5" height="36"/>
    <text font-size="12.8" style="fill: #000000;text-anchor:middle;font-family:monospace;font-style:normal;font-weight:normal" x="-265.042" y="123.175">token</text>
  </g>
  <g>
    <ellipse style="fill: none; fill-opacity:0; stroke-width: 2; stroke: #000000" cx="-40.2552" cy="161.871" rx="10.5158" ry="10.0898"/>
    <text font-size="12.8" style="fill: #000000;text-anchor:middle;font-family:sans-serif;font-style:normal;font-weight:normal" x="-40.2552" y="166.671">
      <tspan x="-40.2552" y="166.671">d</tspan>
    </text>
  </g>
  <g>
    <ellipse style="fill: none; fill-opacity:0; stroke-width: 2; stroke: #000000" cx="52.1094" cy="759.396" rx="10.5158" ry="10.0898"/>
    <text font-size="12.8" style="fill: #000000;text-anchor:middle;font-family:sans-serif;font-style:normal;font-weight:normal" x="52.1094" y="764.196">
      <tspan x="52.1094" y="764.196">d</tspan>
    </text>
  </g>
  <g>
    <polygon style="fill: #ffffff" points="239.587,208.409 271.137,189.479 302.687,208.409 271.137,227.339 "/>
    <polygon style="fill: none; fill-opacity:0; stroke-width: 2; stroke: #000000" points="239.587,208.409 271.137,189.479 302.687,208.409 271.137,227.339 "/>
    <text font-size="12.8" style="fill: #000000;text-anchor:end;font-family:monospace;font-style:normal;font-weight:normal" x="233.587" y="202.409">1</text>
    <text font-size="12.8" style="fill: #000000;text-anchor:start;font-family:monospace;font-style:normal;font-weight:normal" x="308.687" y="202.409">N</text>
    <text font-size="12.8" style="fill: #000000;text-anchor:middle;font-family:monospace;font-style:normal;font-weight:normal" x="271.137" y="211.609">has</text>
  </g>
  <g>
    <ellipse style="fill: #ffffff" cx="-40.4604" cy="52.675" rx="50.8" ry="18"/>
    <ellipse style="fill: none; fill-opacity:0; stroke-width: 2; stroke: #000000" cx="-40.4604" cy="52.675" rx="50.8" ry="18"/>
    <text font-size="12.8" style="fill: #000000;text-anchor:middle;font-family:monospace;font-style:normal;font-weight:normal" x="-40.4604" y="55.875">username</text>
  </g>
  <g>
    <ellipse style="fill: #ffffff" cx="50.7175" cy="86.7626" rx="50.8" ry="18"/>
    <ellipse style="fill: none; fill-opacity:0; stroke-width: 2; stroke: #000000" cx="50.7175" cy="86.7626" rx="50.8" ry="18"/>
    <text font-size="12.8" style="fill: #000000;text-anchor:middle;font-family:monospace;font-style:normal;font-weight:normal" x="50.7175" y="89.9626">password</text>
  </g>
  <g>
    <ellipse style="fill: #ffffff" cx="51.3223" cy="155.231" rx="35.4" ry="18"/>
    <ellipse style="fill: none; fill-opacity:0; stroke-width: 2; stroke: #000000" cx="51.3223" cy="155.231" rx="35.4" ry="18"/>
    <text font-size="12.8" style="fill: #000000;text-anchor:middle;font-family:monospace;font-style:normal;font-weight:normal" x="51.3223" y="158.431">code</text>
  </g>
  <g>
    <polygon style="fill: #ffffff" points="-61.442,208.014 -41.442,196.014 -21.442,208.014 -41.442,220.014 "/>
    <polygon style="fill: none; fill-opacity:0; stroke-width: 2; stroke: #000000" points="-61.442,208.014 -41.442,196.014 -21.442,208.014 -41.442,220.014 "/>
    <text font-size="12.8" style="fill: #000000;text-anchor:end;font-family:monospace;font-style:normal;font-weight:normal" x="-67.442" y="202.014">1</text>
    <text font-size="12.8" style="fill: #000000;text-anchor:start;font-family:monospace;font-style:normal;font-weight:normal" x="-15.442" y="202.014">N</text>
    <text font-size="12.8" style="fill: #000000;text-anchor:middle;font-family:monospace;font-style:normal;font-weight:normal" x="-41.442" y="211.214"></text>
  </g>
  <polyline style="fill: none; fill-opacity:0; stroke-width: 2; stroke: #000000" points="-98.7422,208.06 -80.0921,208.06 -80.0921,208.014 -61.442,208.014 "/>
  <polyline style="fill: none; fill-opacity:0; stroke-width: 2; stroke: #000000" points="-21.442,208.014 -5.07973,208.014 -5.07973,207.974 11.2825,207.974 "/>
  <line style="fill: none; fill-opacity:0; stroke-width: 2; stroke: #000000" x1="-50.4445" y1="166.945" x2="-98.7532" y2="191.004"/>
  <line style="fill: none; fill-opacity:0; stroke-width: 2; stroke: #000000" x1="14.1062" y1="188.969" x2="-30.0378" y2="166.964"/>
  <line style="fill: none; fill-opacity:0; stroke-width: 2; stroke: #000000" x1="-40.4457" y1="151.108" x2="-40.6576" y2="139.131"/>
  <g>
    <polygon style="fill: #ffffff" points="-168.341,127.257 -136.791,108.327 -105.241,127.257 -136.791,146.187 "/>
    <polygon style="fill: none; fill-opacity:0; stroke-width: 2; stroke: #000000" points="-168.341,127.257 -136.791,108.327 -105.241,127.257 -136.791,146.187 "/>
    <text font-size="12.8" style="fill: #000000;text-anchor:end;font-family:monospace;font-style:normal;font-weight:normal" x="-174.341" y="121.257">N</text>
    <text font-size="12.8" style="fill: #000000;text-anchor:start;font-family:monospace;font-style:normal;font-weight:normal" x="-99.2406" y="121.257">1</text>
    <text font-size="12.8" style="fill: #000000;text-anchor:middle;font-family:monospace;font-style:normal;font-weight:normal" x="-136.791" y="130.457">has</text>
  </g>
  <g>
    <polygon style="fill: #ffffff" points="31.9522,279.422 63.5022,260.492 95.0522,279.422 63.5022,298.352 "/>
    <polygon style="fill: none; fill-opacity:0; stroke-width: 2; stroke: #000000" points="31.9522,279.422 63.5022,260.492 95.0522,279.422 63.5022,298.352 "/>
    <text font-size="12.8" style="fill: #000000;text-anchor:start;font-family:monospace;font-style:normal;font-weight:normal" x="67.5022" y="254.492">1</text>
    <text font-size="12.8" style="fill: #000000;text-anchor:start;font-family:monospace;font-style:normal;font-weight:normal" x="67.5022" y="320.352">N</text>
    <text font-size="12.8" style="fill: #000000;text-anchor:middle;font-family:monospace;font-style:normal;font-weight:normal" x="63.5022" y="282.622">has</text>
  </g>
  <polyline style="fill: none; fill-opacity:0; stroke-width: 2; stroke: #000000" points="-168.341,127.257 -199.562,127.257 -199.562,119.975 -230.784,119.975 "/>
  <polyline style="fill: none; fill-opacity:0; stroke-width: 2; stroke: #000000" points="-105.241,127.257 -87.8173,127.257 -87.8173,120.123 -70.394,120.123 "/>
  <line style="fill: none; fill-opacity:0; stroke-width: 2; stroke: #000000" x1="-85.4354" y1="95.662" x2="-71.3936" y2="103.391"/>
  <line style="fill: none; fill-opacity:0; stroke-width: 2; stroke: #000000" x1="-40.8438" y1="101.136" x2="-40.6106" y2="71.6611"/>
  <line style="fill: none; fill-opacity:0; stroke-width: 2; stroke: #000000" x1="-10.6101" y1="109.07" x2="14.3273" y2="99.9995"/>
  <line style="fill: none; fill-opacity:0; stroke-width: 2; stroke: #000000" x1="51.6499" y1="174.211" x2="51.905" y2="188.994"/>
  <polyline style="fill: none; fill-opacity:0; stroke-width: 2; stroke: #000000" points="52.2325,225.974 51.8302,225.974 51.8302,260.492 63.5022,260.492 "/>
  <polyline style="fill: none; fill-opacity:0; stroke-width: 2; stroke: #000000" points="63.5022,298.352 63.5022,328.206 51.4394,328.206 51.4394,358.06 "/>
  <line style="fill: none; fill-opacity:0; stroke-width: 2; stroke: #000000" x1="-66.3123" y1="787.194" x2="40.9158" y2="762.023"/>
  <line style="fill: none; fill-opacity:0; stroke-width: 2; stroke: #000000" x1="54.2348" y1="734.246" x2="53.0428" y2="748.351"/>
  <line style="fill: none; fill-opacity:0; stroke-width: 2; stroke: #000000" x1="178.249" y1="875.446" x2="60.4327" y2="767.053"/>
  <line style="fill: none; fill-opacity:0; stroke-width: 2; stroke: #000000" x1="6.14607" y1="692.44" x2="14.4685" y2="696.262"/>
  <line style="fill: none; fill-opacity:0; stroke-width: 2; stroke: #000000" x1="103.547" y1="689.34" x2="90.8118" y2="696.259"/>
  <line style="fill: none; fill-opacity:0; stroke-width: 2; stroke: #000000" x1="135.445" y1="954.578" x2="178.848" y2="913.449"/>
  <line style="fill: none; fill-opacity:0; stroke-width: 2; stroke: #000000" x1="250.494" y1="879.009" x2="233.157" y2="884.196"/>
  <line style="fill: none; fill-opacity:0; stroke-width: 2; stroke: #000000" x1="263.479" y1="908.727" x2="233.113" y2="902.012"/>
  <line style="fill: none; fill-opacity:0; stroke-width: 2; stroke: #000000" x1="267.744" y1="941.353" x2="226.791" y2="913.449"/>
  <line style="fill: none; fill-opacity:0; stroke-width: 2; stroke: #000000" x1="151.167" y1="907.323" x2="164.672" y2="903.68"/>
  <line style="fill: none; fill-opacity:0; stroke-width: 2; stroke: #000000" x1="123.07" y1="874.341" x2="164.646" y2="885.364"/>
  <g>
    <polygon style="fill: #ffffff" points="143.159,997.018 197.809,964.228 252.459,997.018 197.809,1029.81 "/>
    <polygon style="fill: none; fill-opacity:0; stroke-width: 2; stroke: #000000" points="143.159,997.018 197.809,964.228 252.459,997.018 197.809,1029.81 "/>
    <text font-size="12.8" style="fill: #000000;text-anchor:start;font-family:monospace;font-style:normal;font-weight:normal" x="201.809" y="958.228">1</text>
    <text font-size="12.8" style="fill: #000000;text-anchor:start;font-family:monospace;font-style:normal;font-weight:normal" x="201.809" y="1051.81">N</text>
    <text font-size="12.8" style="fill: #000000;text-anchor:middle;font-family:monospace;font-style:normal;font-weight:normal" x="197.809" y="1000.22">performed</text>
  </g>
  <g>
    <polygon style="fill: #ffffff" points="489.916,893.729 544.566,860.939 599.216,893.729 544.566,926.519 "/>
    <polygon style="fill: none; fill-opacity:0; stroke-width: 2; stroke: #000000" points="489.916,893.729 544.566,860.939 599.216,893.729 544.566,926.519 "/>
    <text font-size="12.8" style="fill: #000000;text-anchor:end;font-family:monospace;font-style:normal;font-weight:normal" x="483.916" y="887.729">1</text>
    <text font-size="12.8" style="fill: #000000;text-anchor:start;font-family:monospace;font-style:normal;font-weight:normal" x="605.216" y="887.729">1</text>
    <text font-size="12.8" style="fill: #000000;text-anchor:middle;font-family:monospace;font-style:normal;font-weight:normal" x="544.566" y="896.929">evaluates</text>
  </g>
  <polyline style="fill: none; fill-opacity:0; stroke-width: 2; stroke: #000000" points="198.901,913.455 198.901,938.842 197.809,938.842 197.809,964.228 "/>
  <polyline style="fill: none; fill-opacity:0; stroke-width: 2; stroke: #000000" points="232.151,894.446 232.151,894.17 489.916,894.17 489.916,893.729 "/>
  <polyline style="fill: none; fill-opacity:0; stroke-width: 2; stroke: #000000" points="197.809,1029.81 197.809,1050.13 198.902,1050.13 198.902,1070.44 "/>
  <polyline style="fill: none; fill-opacity:0; stroke-width: 2; stroke: #000000" points="599.216,893.729 652.632,893.729 652.632,892.918 706.048,892.918 "/>
  <line style="fill: none; fill-opacity:0; stroke-width: 2; stroke: #000000" x1="253.711" y1="1060.04" x2="235.565" y2="1069.44"/>
  <line style="fill: none; fill-opacity:0; stroke-width: 2; stroke: #000000" x1="212.676" y1="1107.44" x2="226.81" y2="1126.93"/>
  <line style="fill: none; fill-opacity:0; stroke-width: 2; stroke: #000000" x1="178.054" y1="1107.45" x2="160.916" y2="1123.07"/>
  <line style="fill: none; fill-opacity:0; stroke-width: 2; stroke: #000000" x1="795.256" y1="854.883" x2="778.806" y2="873.924"/>
  <line style="fill: none; fill-opacity:0; stroke-width: 2; stroke: #000000" x1="845.944" y1="876.738" x2="819.749" y2="881.811"/>
  <line style="fill: none; fill-opacity:0; stroke-width: 2; stroke: #000000" x1="748.923" y1="927.442" x2="754.987" y2="911.905"/>
  <line style="fill: none; fill-opacity:0; stroke-width: 2; stroke: #000000" x1="837.529" y1="925.045" x2="806.82" y2="911.913"/>
  <polyline style="fill: none; fill-opacity:0; stroke-width: 2; stroke: #000000" points="93.1825,207.974 166.385,207.974 166.385,208.409 239.587,208.409 "/>
  <polyline style="fill: none; fill-opacity:0; stroke-width: 2; stroke: #000000" points="302.687,208.409 393.146,208.409 393.146,208.535 483.606,208.535 "/>
  <line style="fill: none; fill-opacity:0; stroke-width: 2; stroke: #000000" x1="477.996" y1="179.217" x2="503.906" y2="189.551"/>
  <line style="fill: none; fill-opacity:0; stroke-width: 2; stroke: #000000" x1="509.752" y1="142.78" x2="539.443" y2="189.539"/>
  <line style="fill: none; fill-opacity:0; stroke-width: 2; stroke: #000000" x1="548.58" y1="309.768" x2="550.96" y2="227.421"/>
  <line style="fill: none; fill-opacity:0; stroke-width: 2; stroke: #000000" x1="488.664" y1="276.101" x2="533.835" y2="227.534"/>
  <line style="fill: none; fill-opacity:0; stroke-width: 2; stroke: #000000" x1="590.995" y1="272.011" x2="563.327" y2="227.536"/>
  <line style="fill: none; fill-opacity:0; stroke-width: 2; stroke: #000000" x1="578.286" y1="162.195" x2="562.479" y2="189.547"/>
  <line style="fill: none; fill-opacity:0; stroke-width: 2; stroke: #000000" x1="668.912" y1="153.951" x2="592.314" y2="189.563"/>
  <line style="fill: none; fill-opacity:0; stroke-width: 2; stroke: #000000" x1="675.238" y1="190.418" x2="620.4" y2="198.447"/>
  <line style="fill: none; fill-opacity:0; stroke-width: 2; stroke: #000000" x1="746.564" y1="215.876" x2="620.408" y2="211.128"/>
  <line style="fill: none; fill-opacity:0; stroke-width: 2; stroke: #000000" x1="668.781" y1="238.395" x2="620.401" y2="226.077"/>
  <line style="fill: none; fill-opacity:0; stroke-width: 2; stroke: #000000" x1="681.33" y1="285.089" x2="583.719" y2="227.53"/>
  <line style="fill: none; fill-opacity:0; stroke-width: 2; stroke: #000000" x1="-53.3347" y1="953.408" x2="-24.9775" y2="967.033"/>
  <line style="fill: none; fill-opacity:0; stroke-width: 2; stroke: #000000" x1="-93.0606" y1="978.429" x2="-92.7592" y2="953.583"/>
  <line style="fill: none; fill-opacity:0; stroke-width: 2; stroke: #000000" x1="-140.251" y1="910.047" x2="-129.479" y2="915.584"/>
  <line style="fill: none; fill-opacity:0; stroke-width: 2; stroke: #000000" x1="-30.5195" y1="931.044" x2="-46.7378" y2="931.968"/>
  <g>
    <polygon style="fill: #ffffff" points="-287.464,790.592 -232.814,757.802 -178.164,790.592 -232.814,823.382 "/>
    <polygon style="fill: none; fill-opacity:0; stroke-width: 2; stroke: #000000" points="-287.464,790.592 -232.814,757.802 -178.164,790.592 -232.814,823.382 "/>
    <text font-size="12.8" style="fill: #000000;text-anchor:start;font-family:monospace;font-style:normal;font-weight:normal" x="-228.814" y="751.802">1</text>
    <text font-size="12.8" style="fill: #000000;text-anchor:start;font-family:monospace;font-style:normal;font-weight:normal" x="-228.814" y="845.382">N</text>
    <text font-size="12.8" style="fill: #000000;text-anchor:middle;font-family:monospace;font-style:normal;font-weight:normal" x="-232.814" y="793.792">performed</text>
  </g>
  <polyline style="fill: none; fill-opacity:0; stroke-width: 2; stroke: #000000" points="-92.8672,811.428 -92.8672,832.428 -162.34,832.428 -162.34,757.802 -232.814,757.802 "/>
  <polyline style="fill: none; fill-opacity:0; stroke-width: 2; stroke: #000000" points="-232.814,823.382 -232.814,869.474 -92.5286,869.474 -92.5286,915.567 "/>
  <g>
    <ellipse style="fill: #ffffff" cx="446.268" cy="243.64" rx="27.7" ry="18"/>
    <ellipse style="fill: none; fill-opacity:0; stroke-width: 2; stroke: #000000" cx="446.268" cy="243.64" rx="27.7" ry="18"/>
    <text font-size="12.8" style="fill: #000000;text-anchor:middle;font-family:monospace;font-style:normal;font-weight:normal" x="446.268" y="246.84">id</text>
    <line style="fill: none; fill-opacity:0; stroke-width: 2; stroke: #000000" x1="438.568" y1="251.64" x2="453.968" y2="251.64"/>
  </g>
  <line style="fill: none; fill-opacity:0; stroke-width: 2; stroke: #000000" x1="471.864" y1="235.102" x2="494.545" y2="227.536"/>
  <g>
    <ellipse style="fill: #ffffff" cx="735.626" cy="849.02" rx="27.7" ry="18"/>
    <ellipse style="fill: none; fill-opacity:0; stroke-width: 2; stroke: #000000" cx="735.626" cy="849.02" rx="27.7" ry="18"/>
    <text font-size="12.8" style="fill: #000000;text-anchor:middle;font-family:monospace;font-style:normal;font-weight:normal" x="735.626" y="852.22">id</text>
    <line style="fill: none; fill-opacity:0; stroke-width: 2; stroke: #000000" x1="727.926" y1="857.02" x2="743.326" y2="857.02"/>
  </g>
  <line style="fill: none; fill-opacity:0; stroke-width: 2; stroke: #000000" x1="746.352" y1="866.607" x2="750.809" y2="873.916"/>
  <g>
    <ellipse style="fill: #ffffff" cx="-27.3892" cy="883.922" rx="27.7" ry="18"/>
    <ellipse style="fill: none; fill-opacity:0; stroke-width: 2; stroke: #000000" cx="-27.3892" cy="883.922" rx="27.7" ry="18"/>
    <text font-size="12.8" style="fill: #000000;text-anchor:middle;font-family:monospace;font-style:normal;font-weight:normal" x="-27.3892" y="887.122">id</text>
    <line style="fill: none; fill-opacity:0; stroke-width: 2; stroke: #000000" x1="-35.0892" y1="891.922" x2="-19.6892" y2="891.922"/>
  </g>
  <line style="fill: none; fill-opacity:0; stroke-width: 2; stroke: #000000" x1="-45.9403" y1="898.348" x2="-68.0854" y2="915.568"/>
  <g>
    <ellipse style="fill: #ffffff" cx="120.111" cy="1065.6" rx="27.7" ry="18"/>
    <ellipse style="fill: none; fill-opacity:0; stroke-width: 2; stroke: #000000" cx="120.111" cy="1065.6" rx="27.7" ry="18"/>
    <text font-size="12.8" style="fill: #000000;text-anchor:middle;font-family:monospace;font-style:normal;font-weight:normal" x="120.111" y="1068.8">id</text>
    <line style="fill: none; fill-opacity:0; stroke-width: 2; stroke: #000000" x1="112.411" y1="1073.6" x2="127.811" y2="1073.6"/>
  </g>
  <line style="fill: none; fill-opacity:0; stroke-width: 2; stroke: #000000" x1="146.359" y1="1073.21" x2="149.254" y2="1074.05"/>
  <g>
    <rect style="fill: #ffffff" x="2.78942" y="358.06" width="97.3" height="36"/>
    <rect style="fill: none; fill-opacity:0; stroke-width: 2; stroke: #000000" x="2.78942" y="358.06" width="97.3" height="36"/>
    <text font-size="12.8" style="fill: #000000;text-anchor:middle;font-family:monospace;font-style:normal;font-weight:normal" x="51.4394" y="379.26">mesocycle</text>
  </g>
  <g>
    <rect style="fill: #ffffff" x="-0.46058" y="502.86" width="105" height="36"/>
    <rect style="fill: none; fill-opacity:0; stroke-width: 2; stroke: #000000" x="-0.46058" y="502.86" width="105" height="36"/>
    <text font-size="12.8" style="fill: #000000;text-anchor:middle;font-family:monospace;font-style:normal;font-weight:normal" x="52.0394" y="524.06">microcycle</text>
  </g>
  <g>
    <polygon style="fill: #ffffff" points="31.7022,458.222 63.2522,439.292 94.8022,458.222 63.2522,477.152 "/>
    <polygon style="fill: none; fill-opacity:0; stroke-width: 2; stroke: #000000" points="31.7022,458.222 63.2522,439.292 94.8022,458.222 63.2522,477.152 "/>
    <text font-size="12.8" style="fill: #000000;text-anchor:start;font-family:monospace;font-style:normal;font-weight:normal" x="67.2522" y="433.292">1</text>
    <text font-size="12.8" style="fill: #000000;text-anchor:start;font-family:monospace;font-style:normal;font-weight:normal" x="67.2522" y="499.152">N</text>
    <text font-size="12.8" style="fill: #000000;text-anchor:middle;font-family:monospace;font-style:normal;font-weight:normal" x="63.2522" y="461.422">has</text>
  </g>
  <polyline style="fill: none; fill-opacity:0; stroke-width: 2; stroke: #000000" points="51.4394,394.06 51.4394,416.676 63.2522,416.676 63.2522,439.292 "/>
  <polyline style="fill: none; fill-opacity:0; stroke-width: 2; stroke: #000000" points="63.2522,477.152 63.2522,465.847 52.0394,465.847 52.0394,502.86 "/>
  <g>
    <polygon style="fill: #ffffff" points="-238.497,594.489 -179.997,559.389 -121.497,594.489 -179.997,629.589 "/>
    <polygon style="fill: none; fill-opacity:0; stroke-width: 2; stroke: #000000" points="-238.497,594.489 -179.997,559.389 -121.497,594.489 -179.997,629.589 "/>
    <text font-size="12.8" style="fill: #000000;text-anchor:start;font-family:monospace;font-style:normal;font-weight:normal" x="-175.997" y="553.389">1</text>
    <text font-size="12.8" style="fill: #000000;text-anchor:start;font-family:monospace;font-style:normal;font-weight:normal" x="-175.997" y="651.589">N</text>
    <text font-size="12.8" style="fill: #000000;text-anchor:middle;font-family:monospace;font-style:normal;font-weight:normal" x="-179.997" y="597.689">constitued</text>
  </g>
  <polyline style="fill: none; fill-opacity:0; stroke-width: 2; stroke: #000000" points="52.0394,539.863 52.0394,550.154 -179.997,550.154 -179.997,559.389 "/>
  <polyline style="fill: none; fill-opacity:0; stroke-width: 2; stroke: #000000" points="-179.997,629.589 -179.997,653.615 55.8394,653.615 55.8394,697.26 "/>
  <g>
    <polygon style="fill: #ffffff" points="98.7022,322.772 149.502,292.292 200.302,322.772 149.502,353.252 "/>
    <polygon style="fill: none; fill-opacity:0; stroke-width: 2; stroke: #000000" points="98.7022,322.772 149.502,292.292 200.302,322.772 149.502,353.252 "/>
    <text font-size="12.8" style="fill: #000000;text-anchor:start;font-family:monospace;font-style:normal;font-weight:normal" x="153.502" y="286.292">1</text>
    <text font-size="12.8" style="fill: #000000;text-anchor:start;font-family:monospace;font-style:normal;font-weight:normal" x="153.502" y="375.252">N</text>
    <text font-size="12.8" style="fill: #000000;text-anchor:middle;font-family:monospace;font-style:normal;font-weight:normal" x="149.502" y="325.972">competes</text>
  </g>
  <polyline style="fill: none; fill-opacity:0; stroke-width: 2; stroke: #000000" points="93.1825,225.974 149.208,225.974 149.208,292.292 149.502,292.292 "/>
  <polyline style="fill: none; fill-opacity:0; stroke-width: 2; stroke: #000000" points="149.502,353.252 149.502,421.01 376.115,421.01 376.115,488.769 "/>
  <g>
    <polygon style="fill: #ffffff" points="352.702,595.222 384.252,576.292 415.802,595.222 384.252,614.152 "/>
    <polygon style="fill: none; fill-opacity:0; stroke-width: 2; stroke: #000000" points="352.702,595.222 384.252,576.292 415.802,595.222 384.252,614.152 "/>
    <text font-size="12.8" style="fill: #000000;text-anchor:start;font-family:monospace;font-style:normal;font-weight:normal" x="388.252" y="570.292">1</text>
    <text font-size="12.8" style="fill: #000000;text-anchor:start;font-family:monospace;font-style:normal;font-weight:normal" x="388.252" y="636.152">N</text>
    <text font-size="12.8" style="fill: #000000;text-anchor:middle;font-family:monospace;font-style:normal;font-weight:normal" x="384.252" y="598.422">has</text>
  </g>
  <polyline style="fill: none; fill-opacity:0; stroke-width: 2; stroke: #000000" points="376.115,525.778 372.58,525.778 372.58,576.292 384.252,576.292 "/>
  <polyline style="fill: none; fill-opacity:0; stroke-width: 2; stroke: #000000" points="384.252,614.152 384.252,647.873 372.382,647.873 372.382,681.594 "/>
  <g>
    <polygon style="fill: #ffffff" points="353.1,800.928 373.1,788.928 393.1,800.928 373.1,812.928 "/>
    <polygon style="fill: none; fill-opacity:0; stroke-width: 2; stroke: #000000" points="353.1,800.928 373.1,788.928 393.1,800.928 373.1,812.928 "/>
    <text font-size="12.8" style="fill: #000000;text-anchor:start;font-family:monospace;font-style:normal;font-weight:normal" x="377.1" y="782.928">1</text>
    <text font-size="12.8" style="fill: #000000;text-anchor:start;font-family:monospace;font-style:normal;font-weight:normal" x="377.1" y="834.928">1</text>
    <text font-size="12.8" style="fill: #000000;text-anchor:middle;font-family:monospace;font-style:normal;font-weight:normal" x="373.1" y="804.128"></text>
  </g>
  <polyline style="fill: none; fill-opacity:0; stroke-width: 2; stroke: #000000" points="372.382,717.594 372.382,753.261 373.1,753.261 373.1,788.928 "/>
  <polyline style="fill: none; fill-opacity:0; stroke-width: 2; stroke: #000000" points="373.1,812.928 373.1,831.647 198.901,831.647 198.901,876.446 "/>
  <g>
    <rect style="fill: #ffffff" x="-407.792" y="927.036" width="120.4" height="36"/>
    <rect style="fill: none; fill-opacity:0; stroke-width: 2; stroke: #000000" x="-407.792" y="927.036" width="120.4" height="36"/>
    <text font-size="12.8" style="fill: #000000;text-anchor:middle;font-family:monospace;font-style:normal;font-weight:normal" x="-347.592" y="948.236">gym_exercise</text>
  </g>
  <g>
    <ellipse style="fill: #ffffff" cx="-362.892" cy="880.036" rx="35.4" ry="18"/>
    <ellipse style="fill: none; fill-opacity:0; stroke-width: 2; stroke: #000000" cx="-362.892" cy="880.036" rx="35.4" ry="18"/>
    <text font-size="12.8" style="fill: #000000;text-anchor:middle;font-family:monospace;font-style:normal;font-weight:normal" x="-362.892" y="883.236">name</text>
  </g>
  <line style="fill: none; fill-opacity:0; stroke-width: 2; stroke: #000000" x1="-358.462" y1="898.857" x2="-352.063" y2="926.041"/>
  <g>
    <ellipse style="fill: #ffffff" cx="-287.193" cy="886.036" rx="27.7" ry="18"/>
    <ellipse style="fill: none; fill-opacity:0; stroke-width: 2; stroke: #000000" cx="-287.193" cy="886.036" rx="27.7" ry="18"/>
    <text font-size="12.8" style="fill: #000000;text-anchor:middle;font-family:monospace;font-style:normal;font-weight:normal" x="-287.193" y="889.236">id</text>
    <line style="fill: none; fill-opacity:0; stroke-width: 2; stroke: #000000" x1="-294.893" y1="894.036" x2="-279.493" y2="894.036"/>
  </g>
  <line style="fill: none; fill-opacity:0; stroke-width: 2; stroke: #000000" x1="-303.243" y1="901.715" x2="-328.186" y2="926.08"/>
  <g>
    <polygon style="fill: #ffffff" points="-302.671,1051.73 -232.621,1009.7 -162.571,1051.73 -232.621,1093.76 "/>
    <polygon style="fill: none; fill-opacity:0; stroke-width: 2; stroke: #000000" points="-302.671,1051.73 -232.621,1009.7 -162.571,1051.73 -232.621,1093.76 "/>
    <text font-size="12.8" style="fill: #000000;text-anchor:end;font-family:monospace;font-style:normal;font-weight:normal" x="-308.671" y="1045.73">N</text>
    <text font-size="12.8" style="fill: #000000;text-anchor:start;font-family:monospace;font-style:normal;font-weight:normal" x="-156.571" y="1045.73">N</text>
    <text font-size="12.8" style="fill: #000000;text-anchor:middle;font-family:monospace;font-style:normal;font-weight:normal" x="-232.621" y="1054.93">gym_exercises</text>
  </g>
  <polyline style="fill: none; fill-opacity:0; stroke-width: 2; stroke: #000000" points="-302.671,1051.73 -302.671,1030.73 -266.392,1030.73 -266.392,945.036 -287.392,945.036 "/>
  <polyline style="fill: none; fill-opacity:0; stroke-width: 2; stroke: #000000" points="-162.571,1051.73 -162.571,946.436 -137.329,946.436 -137.329,934.576 "/>
  <g>
    <rect style="fill: #ffffff" x="477.655" y="1061.73" width="143.5" height="36"/>
    <rect style="fill: none; fill-opacity:0; stroke-width: 2; stroke: #000000" x="477.655" y="1061.73" width="143.5" height="36"/>
    <text font-size="12.8" style="fill: #000000;text-anchor:middle;font-family:monospace;font-style:normal;font-weight:normal" x="549.405" y="1082.93">water_maneuvers</text>
  </g>
  <g>
    <ellipse style="fill: #ffffff" cx="420.608" cy="1029.49" rx="35.4" ry="18"/>
    <ellipse style="fill: none; fill-opacity:0; stroke-width: 2; stroke: #000000" cx="420.608" cy="1029.49" rx="35.4" ry="18"/>
    <text font-size="12.8" style="fill: #000000;text-anchor:middle;font-family:monospace;font-style:normal;font-weight:normal" x="420.608" y="1032.69">name</text>
  </g>
  <line style="fill: none; fill-opacity:0; stroke-width: 2; stroke: #000000" x1="449.616" y1="1040.8" x2="500.698" y2="1060.73"/>
  <g>
    <ellipse style="fill: #ffffff" cx="504.307" cy="1025.49" rx="27.7" ry="18"/>
    <ellipse style="fill: none; fill-opacity:0; stroke-width: 2; stroke: #000000" cx="504.307" cy="1025.49" rx="27.7" ry="18"/>
    <text font-size="12.8" style="fill: #000000;text-anchor:middle;font-family:monospace;font-style:normal;font-weight:normal" x="504.307" y="1028.69">id</text>
    <line style="fill: none; fill-opacity:0; stroke-width: 2; stroke: #000000" x1="496.607" y1="1033.49" x2="512.007" y2="1033.49"/>
  </g>
  <line style="fill: none; fill-opacity:0; stroke-width: 2; stroke: #000000" x1="518.103" y1="1042.08" x2="533.617" y2="1060.74"/>
  <g>
    <polygon style="fill: #ffffff" points="258.451,1223.59 336.201,1176.94 413.951,1223.59 336.201,1270.24 "/>
    <polygon style="fill: none; fill-opacity:0; stroke-width: 2; stroke: #000000" points="258.451,1223.59 336.201,1176.94 413.951,1223.59 336.201,1270.24 "/>
    <text font-size="12.8" style="fill: #000000;text-anchor:end;font-family:monospace;font-style:normal;font-weight:normal" x="252.451" y="1217.59">N</text>
    <text font-size="12.8" style="fill: #000000;text-anchor:start;font-family:monospace;font-style:normal;font-weight:normal" x="419.951" y="1217.59">N</text>
    <text font-size="12.8" style="fill: #000000;text-anchor:middle;font-family:monospace;font-style:normal;font-weight:normal" x="336.201" y="1226.79">water_maneuvers</text>
  </g>
  <polyline style="fill: none; fill-opacity:0; stroke-width: 2; stroke: #000000" points="258.451,1223.59 258.451,1202.59 278.451,1202.59 278.451,1088.44 247.552,1088.44 "/>
  <polyline style="fill: none; fill-opacity:0; stroke-width: 2; stroke: #000000" points="413.951,1223.59 413.951,1085.89 477.655,1085.89 477.655,1079.73 "/>
</svg>
